<svg width="50" height="52" viewBox="0 0 50 52" fill="none" xmlns="http://www.w3.org/2000/svg">
    <circle cx="25" cy="25" r="25" fill="#1F1A14"/>
    <path d="M24.793 35.0684C25.3672 35.0684 25.9355 34.9922 26.498 34.8398C27.0605 34.6758 27.5645 34.4414 28.0098 34.1367C28.4551 33.8203 28.8125 33.4395 29.082 32.9941C29.3516 32.5371 29.4863 32.0098 29.4863 31.4121C29.4863 30.6973 29.2988 30.0645 28.9238 29.5137C28.5605 28.9512 28.0801 28.4414 27.4824 27.9844C26.8848 27.5156 26.1992 27.0762 25.4258 26.666C24.6641 26.2559 23.8848 25.8457 23.0879 25.4355C22.291 25.0254 21.5059 24.5977 20.7324 24.1523C19.9707 23.6953 19.291 23.1914 18.6934 22.6406C18.0957 22.0781 17.6094 21.457 17.2344 20.7773C16.8711 20.0859 16.6895 19.2949 16.6895 18.4043C16.6895 17.5137 16.8535 16.6875 17.1816 15.9258C17.5215 15.1641 18.0137 14.5078 18.6582 13.957C19.3027 13.3945 20.0938 12.9551 21.0312 12.6387C21.9805 12.3223 23.0645 12.1641 24.2832 12.1641C25.3848 12.1641 26.3691 12.2813 27.2363 12.5156C28.1035 12.75 28.8652 13.0957 29.5215 13.5527C30.1777 14.0098 30.7344 14.5723 31.1914 15.2402C31.6484 15.9082 32.0176 16.6816 32.2988 17.5605L30.2949 18.4746C30.0605 17.7598 29.7617 17.1094 29.3984 16.5234C29.0352 15.9258 28.6016 15.416 28.0977 14.9941C27.5938 14.5723 27.0078 14.25 26.3398 14.0273C25.6836 13.793 24.9395 13.6758 24.1074 13.6758C23.3691 13.6758 22.7246 13.7812 22.1738 13.9922C21.623 14.1914 21.1602 14.4609 20.7852 14.8008C20.4219 15.1289 20.1465 15.5039 19.959 15.9258C19.7832 16.3359 19.6953 16.7578 19.6953 17.1914C19.6953 17.8008 19.8828 18.3633 20.2578 18.8789C20.6328 19.3828 21.1309 19.8633 21.752 20.3203C22.373 20.7656 23.0762 21.1992 23.8613 21.6211C24.6582 22.043 25.4668 22.4707 26.2871 22.9043C27.1074 23.3379 27.9102 23.7891 28.6953 24.2578C29.4922 24.7266 30.2012 25.2422 30.8223 25.8047C31.4434 26.3555 31.9414 26.9648 32.3164 27.6328C32.6914 28.2891 32.8789 29.0273 32.8789 29.8477C32.8789 30.7734 32.7031 31.6465 32.3516 32.4668C32 33.2754 31.4727 33.9844 30.7695 34.5938C30.0664 35.1914 29.1934 35.666 28.1504 36.0176C27.1074 36.3691 25.8945 36.5449 24.5117 36.5449C23.3867 36.5449 22.3848 36.4219 21.5059 36.1758C20.627 35.9297 19.8477 35.5723 19.168 35.1035C18.5 34.6348 17.9258 34.0664 17.4453 33.3984C16.9648 32.7188 16.5723 31.9453 16.2676 31.0781L18.3594 30.2168C18.6055 30.9785 18.9336 31.6582 19.3438 32.2559C19.7656 32.8535 20.252 33.3633 20.8027 33.7852C21.3535 34.1953 21.9629 34.5117 22.6309 34.7344C23.3105 34.957 24.0312 35.0684 24.793 35.0684Z" fill="white"/>
</svg>
