<?xml version="1.0" encoding="utf-8"?>
<!-- Generator: Adobe Illustrator 25.0.1, SVG Export Plug-In . SVG Version: 6.00 Build 0)  -->
<svg version="1.1" id="图层_1" xmlns="http://www.w3.org/2000/svg" xmlns:xlink="http://www.w3.org/1999/xlink" x="0px" y="0px"
	 viewBox="0 0 39 35" style="enable-background:new 0 0 39 35;" xml:space="preserve">
<style type="text/css">
	.st0{fill:#FC2C49;}
	.st1{fill:none;stroke:#1F1A14;stroke-width:2;}
</style>
<g id="XMLID_1_">
	<g>
		<path class="st0" d="M38,12.1c-0.3,3.1-2,6.2-4.8,9L33.1,21l-1.5,1.5c-0.9,0.9-2.2,2.1-3.6,3.6l-1.2,1.2c-0.4,0.4-0.8,0.8-1.2,1.2
			c-1.1,1.1-2.2,2.2-3.4,3.3l-1.5,1.5l-0.6,0.6L19.5,34l-0.6-0.2v-0.1l-5.2-5.1l-1.1-1.1c-2.2-2.2-4.4-4.3-6.7-6.5
			c-2.9-2.8-4.5-5.9-4.8-9h0C0.7,8.9,1.8,6,4.3,3.8C6.2,2,8.5,1,10.8,1c0.5,0,1,0,1.5,0.1c2.2,0.4,4.5,1.5,6.7,3.3l0.6,0.5l0.6-0.5
			c2.2-1.8,4.5-3,6.7-3.3c2.9-0.5,5.7,0.5,8,2.7C37.2,6.1,38.3,9,38,12.1z"/>
	</g>
	<g>
		<path class="st1" d="M26.9,1.1c-2.2,0.3-4.5,1.5-6.7,3.3l-0.6,0.5L19,4.4c-2.2-1.8-4.5-2.9-6.7-3.3C11.8,1,11.3,1,10.8,1
			C8.5,1,6.2,2,4.3,3.8C1.8,6,0.7,8.9,1.1,12c0,0,0,0.1,0,0.1"/>
		<path class="st1" d="M26.9,1.1c2.9-0.5,5.7,0.5,8,2.7c2.3,2.3,3.4,5.2,3.1,8.3s-2,6.2-4.8,9"/>
		<path class="st1" d="M31.6,22.5c-0.9,0.9-2.2,2.1-3.6,3.6"/>
		<polyline class="st1" points="33.1,21 31.6,22.5 28,26 26.8,27.2 		"/>
		<path class="st1" d="M26.8,27.2c-0.4,0.4-0.8,0.8-1.2,1.2c-1.1,1.1-2.2,2.2-3.4,3.3l-1.5,1.5"/>
		<line class="st1" x1="26.8" y1="27.2" x2="20.7" y2="33.1"/>
		<line class="st1" x1="20.7" y1="33.2" x2="20.1" y2="33.8"/>
		<line class="st1" x1="18.9" y1="33.7" x2="13.7" y2="28.6"/>
		<line class="st1" x1="13.7" y1="28.6" x2="12.6" y2="27.5"/>
		<path class="st1" d="M12.6,27.5c-2.2-2.2-4.4-4.3-6.7-6.5"/>
		<line class="st1" x1="12.6" y1="27.5" x2="5.9" y2="21"/>
		<path class="st1" d="M5.9,21c-2.9-2.8-4.5-5.9-4.8-9"/>
		<path class="st1" d="M20.1,33.8C19.9,34,19.7,34,19.5,34"/>
		<line class="st1" x1="20.1" y1="33.8" x2="19.5" y2="34"/>
		<path class="st1" d="M19.5,34c-0.2,0-0.4-0.1-0.6-0.2L19.5,34z"/>
	</g>
</g>
</svg>
