<?xml version="1.0" encoding="utf-8"?>
<!-- Generator: Adobe Illustrator 25.0.1, SVG Export Plug-In . SVG Version: 6.00 Build 0)  -->
<svg version="1.1" id="图层_1" xmlns="http://www.w3.org/2000/svg" xmlns:xlink="http://www.w3.org/1999/xlink" x="0px" y="0px"
	 viewBox="0 0 39 35" style="enable-background:new 0 0 39 35;" xml:space="preserve">
<style type="text/css">
	.st0{fill:none;stroke:#1F1A14;stroke-width:2;}
</style>
<path class="st0" d="M26.9,1.1c-2.2,0.3-4.5,1.5-6.7,3.3l-0.6,0.5l-0.6-0.5c-2.2-1.8-4.5-2.9-6.7-3.3v0c-2.9-0.5-5.7,0.5-8,2.7
	C1.8,6,0.7,9,1.1,12.1 M26.9,1.1c2.9-0.5,5.7,0.5,8,2.7c2.3,2.3,3.4,5.2,3.1,8.3c-0.3,3.1-2,6.2-4.8,9l0,0 M33.1,21
	c-0.8,0.8-3.1,3-6.3,6.2l0,0 M33.1,21l-6.3,6.2 M26.8,27.2c-0.4,0.4-0.8,0.8-1.2,1.2c-1.1,1.1-2.2,2.2-3.4,3.3c0,0,0,0,0,0
	c0,0,0,0,0,0l-1.5,1.5l0,0 M26.8,27.2l-6.1,5.9 M20.7,33.2l-0.6,0.6 M20.7,33.2l-0.6,0.6 M13.7,28.6L13.7,28.6l5.2,5.1L13.7,28.6z
	 M13.7,28.6l-1.1-1.1l0,0 M13.7,28.6l-1.1-1.1 M12.6,27.5c-2.2-2.2-4.4-4.3-6.7-6.5l0,0 M12.6,27.5L5.9,21 M5.9,21
	c-2.9-2.8-4.5-5.9-4.8-9 M20.1,33.8L20.1,33.8 M20.1,33.8L20.1,33.8 M20.1,33.8c-0.2,0.2-0.4,0.2-0.6,0.2 M20.1,33.8L19.5,34
	 M19.5,34c-0.2,0-0.4-0.1-0.6-0.2L19.5,34z M12.3,0.1L12.3,0.1L12.3,0.1z"/>
</svg>
